<?xml version="1.0" encoding="UTF-8"?>
<svg id="Layer_2" data-name="Layer 2" xmlns="http://www.w3.org/2000/svg" viewBox="0 0 229.28 324.63">
  <defs>
    <style>
      .cls-1 {
        fill: #f1e918;
      }
    </style>
  </defs>
  <g id="Layer_1-2" data-name="Layer 1">
    <g>
      <path class="cls-1" d="m137.54,228.87c-11.94,17.22-48.33,51.19-48.33,51.19,28.51-1.96,7.45,33.09,7.45,33.09,95.44-79.84,40.88-84.28,40.88-84.28Z"/>
      <path class="cls-1" d="m0,251.56s22.87-33.9,33.14-7.23c0,0,15.41-47.33,25.98-65.43,0,0-27.08-47.58-59.11,72.66Z"/>
      <path class="cls-1" d="m198.34,93.99h.01s0-.03,0-.04c.04-.04.08-.08.11-.12.17-.27.14-.66-.05-1.14.41-7.87,3.6-49.85,26.18-86.99,1.43.88,3.3.46,4.21-.96s.49-3.34-.94-4.25-3.34-.49-4.25.94-.5,3.3.9,4.22c-24.08,36.1-60.69,56.72-67.74,60.46-.56.01-.95.15-1.13.44-.04.06-.07.12-.08.19-2.96.69-29.94,8.22-62.96,60.09-35.01,55-54.46,118.07-54.46,118.07l24.25,15.44,24.25,15.44s48.9-44.33,83.91-99.32c32.92-51.71,28.44-79.33,27.79-82.45Zm-36.17,9.57c6.97,4.44,9.02,13.68,4.59,20.65-4.44,6.97-13.68,9.03-20.65,4.59-6.97-4.44-9.02-13.68-4.58-20.65,4.44-6.97,13.68-9.02,20.65-4.59Zm-28.63,44.98c6.97,4.44,9.02,13.68,4.58,20.65-4.43,6.97-13.68,9.02-20.65,4.59-6.97-4.43-9.02-13.68-4.59-20.65,4.44-6.97,13.68-9.02,20.65-4.59Zm-44.69,70.22c-6.97-4.44-9.02-13.68-4.59-20.65,4.44-6.97,13.68-9.02,20.65-4.59,6.97,4.44,9.02,13.68,4.59,20.65-4.44,6.97-13.68,9.02-20.65,4.59Z"/>
      <path class="cls-1" d="m72.04,276.48s-2.61,11.89-13.36,18.58c0,0,2.37-2.38,1.53-4.82-.14-.42-.38-.84-.74-1.24-2.46-2.8-7.43,12.09-26.14,17-3.48-19.03,7.91-29.84,4.34-30.88-.52-.15-1-.19-1.44-.14-2.56.27-3.71,3.43-3.71,3.43,1.51-12.57,11.17-19.96,11.18-19.97l-6.85-4.36s-14.33,10.97-16.58,29.62c0,0,1.71-4.68,5.51-5.08.65-.07,1.36-.01,2.14.21,5.31,1.55-11.59,17.57-6.43,45.8,27.76-7.28,35.12-29.37,38.77-25.22.54.61.89,1.23,1.1,1.85,1.24,3.61-2.28,7.14-2.28,7.14,15.94-9.93,19.82-27.56,19.82-27.56l-6.85-4.36Z"/>
    </g>
  </g>
</svg>